<svg xmlns="http://www.w3.org/2000/svg" xmlns:ev="http://www.w3.org/2001/xml-events" xmlns:xlink="http://www.w3.org/1999/xlink" width="200mm" height="300mm" baseProfile="full" version="1.1" viewBox="0 0 200 300"><rect width="200" height="300" x="0" y="0" fill="#222"/><text style="font-size:6px;font-family:Arial" x="11" y="19" fill="#555">Running for 3554 Days</text><text style="font-size:6px;font-family:Arial" x="11" y="39" fill="#555">Races</text><text style="font-size:8px;font-family:Arial" x="11" y="59" fill="#555">1</text><text style="font-size:10px;font-family:Arial;font-weight:700" x="23" y="59" fill="#FFF">Half</text><text style="font-size:6px;font-family:Arial" x="49" y="59" fill="#555">1x</text><text style="font-size:8px;font-family:Arial" x="11" y="77" fill="#555">2</text><text style="font-size:10px;font-family:Arial;font-weight:700" x="23" y="77" fill="#FFF">10K</text><text style="font-size:6px;font-family:Arial" x="49" y="77" fill="#555">12x</text><text style="font-size:6px;font-family:Arial" x="11" y="115" fill="#555">Stats</text><text style="font-size:5px;font-family:Arial" x="11" y="121" fill="#555">Distance</text><text style="font-size:10px;font-family:Arial;font-weight:700" x="11" y="132" fill="#FFF">442</text><text style="font-size:6px;font-family:Arial" x="29" y="132" fill="#555">km</text><text style="font-size:5px;font-family:Arial" x="53" y="121" fill="#555">Runs</text><text style="font-size:10px;font-family:Arial;font-weight:700" x="53" y="132" fill="#FFF">61</text><text style="font-size:5px;font-family:Arial" x="11" y="149" fill="#555">Avg Pace</text><text style="font-size:10px;font-family:Arial;font-weight:700" x="11" y="160" fill="#FFF">6&apos;06&quot;</text><text style="font-size:5px;font-family:Arial" x="53" y="149" fill="#555">Streak</text><text style="font-size:10px;font-family:Arial;font-weight:700" x="53" y="160" fill="#FFF">3</text><text style="font-size:6px;font-family:Arial" x="59" y="160" fill="#555">d</text><text style="font-size:5px;font-family:Arial" x="11" y="177" fill="#555">Time</text><text style="font-size:10px;font-family:Arial;font-weight:700" x="11" y="188" fill="#FFF">45</text><text style="font-size:6px;font-family:Arial" x="23" y="188" fill="#555">h</text><text style="font-size:5px;font-family:Arial" x="53" y="177" fill="#555">Longest</text><text style="font-size:10px;font-family:Arial;font-weight:700" x="53" y="188" fill="#FFF">21.7</text><text style="font-size:5px;font-family:Arial" x="11" y="252.065" fill="#555">Runner</text><text style="font-size:8px;font-family:Arial;font-weight:700" x="11" y="262.065" fill="#FFF">watson</text><text style="font-size:7px;font-family:Arial" x="11" y="285.581" fill="#555">running_page/2026</text><circle cx="85.417" cy="17.419" r="3.313" fill="#FF0"><title>2026-01-01: 10 km</title></circle><circle cx="85.417" cy="26.258" r="3.313" fill="#555"><title>2026-01-02</title></circle><circle cx="85.417" cy="35.097" r="3.313" fill="#FF0"><title>2026-01-03: 10 km</title></circle><circle cx="85.417" cy="43.935" r="3.313" fill="#FF0"><title>2026-01-04: 10 km</title></circle><circle cx="85.417" cy="52.774" r="3.313" fill="#555"><title>2026-01-05</title></circle><circle cx="85.417" cy="61.613" r="3.313" fill="#555"><title>2026-01-06</title></circle><circle cx="85.417" cy="70.452" r="3.313" fill="#555"><title>2026-01-07</title></circle><circle cx="85.417" cy="79.29" r="3.313" fill="#555"><title>2026-01-08</title></circle><circle cx="85.417" cy="88.129" r="3.313" fill="#555"><title>2026-01-09</title></circle><circle cx="85.417" cy="96.968" r="3.313" fill="#4ec0e6"><title>2026-01-10: 8 km</title></circle><circle cx="85.417" cy="105.806" r="3.313" fill="#FF0"><title>2026-01-11: 10 km</title></circle><circle cx="85.417" cy="114.645" r="3.313" fill="#555"><title>2026-01-12</title></circle><circle cx="85.417" cy="123.484" r="3.313" fill="#555"><title>2026-01-13</title></circle><circle cx="85.417" cy="132.323" r="3.313" fill="#555"><title>2026-01-14</title></circle><circle cx="85.417" cy="141.161" r="3.313" fill="#555"><title>2026-01-15</title></circle><circle cx="85.417" cy="150" r="3.313" fill="#555"><title>2026-01-16</title></circle><circle cx="85.417" cy="158.839" r="3.313" fill="#FF0"><title>2026-01-17: 10 km</title></circle><circle cx="85.417" cy="167.677" r="3.313" fill="#4ebadf"><title>2026-01-18: 8 km</title></circle><circle cx="85.417" cy="176.516" r="3.313" fill="#555"><title>2026-01-19</title></circle><circle cx="85.417" cy="185.355" r="3.313" fill="#555"><title>2026-01-20</title></circle><circle cx="85.417" cy="194.194" r="3.313" fill="#555"><title>2026-01-21</title></circle><circle cx="85.417" cy="203.032" r="3.313" fill="#555"><title>2026-01-22</title></circle><circle cx="85.417" cy="211.871" r="3.313" fill="#555"><title>2026-01-23</title></circle><circle cx="85.417" cy="220.71" r="3.313" fill="#5097af"><title>2026-01-24: 5 km</title></circle><circle cx="85.417" cy="229.548" r="3.313" fill="#555"><title>2026-01-25</title></circle><circle cx="85.417" cy="238.387" r="3.313" fill="#555"><title>2026-01-26</title></circle><circle cx="85.417" cy="247.226" r="3.313" fill="#555"><title>2026-01-27</title></circle><circle cx="85.417" cy="256.065" r="3.313" fill="#555"><title>2026-01-28</title></circle><circle cx="85.417" cy="264.903" r="3.313" fill="#555"><title>2026-01-29</title></circle><circle cx="85.417" cy="273.742" r="3.313" fill="#555"><title>2026-01-30</title></circle><circle cx="85.417" cy="282.581" r="3.313" fill="#5097ae"><title>2026-01-31: 5 km</title></circle><circle cx="94.25" cy="17.419" r="3.313" fill="#5096ae"><title>2026-02-01: 5 km</title></circle><circle cx="94.25" cy="26.258" r="3.313" fill="#555"><title>2026-02-02</title></circle><circle cx="94.25" cy="35.097" r="3.313" fill="#555"><title>2026-02-03</title></circle><circle cx="94.25" cy="43.935" r="3.313" fill="#555"><title>2026-02-04</title></circle><circle cx="94.25" cy="52.774" r="3.313" fill="#4fa6c3"><title>2026-02-05: 6 km</title></circle><circle cx="94.25" cy="61.613" r="3.313" fill="#555"><title>2026-02-06</title></circle><circle cx="94.25" cy="70.452" r="3.313" fill="#555"><title>2026-02-07</title></circle><circle cx="94.25" cy="79.29" r="3.313" fill="#555"><title>2026-02-08</title></circle><circle cx="94.25" cy="88.129" r="3.313" fill="#555"><title>2026-02-09</title></circle><circle cx="94.25" cy="96.968" r="3.313" fill="#555"><title>2026-02-10</title></circle><circle cx="94.25" cy="105.806" r="3.313" fill="#555"><title>2026-02-11</title></circle><circle cx="94.25" cy="114.645" r="3.313" fill="#555"><title>2026-02-12</title></circle><circle cx="94.25" cy="123.484" r="3.313" fill="#536971"><title>2026-02-13: 1 km</title></circle><circle cx="94.25" cy="132.323" r="3.313" fill="#555"><title>2026-02-14</title></circle><circle cx="94.25" cy="141.161" r="3.313" fill="#555"><title>2026-02-15</title></circle><circle cx="94.25" cy="150" r="3.313" fill="#555"><title>2026-02-16</title></circle><circle cx="94.25" cy="158.839" r="3.313" fill="#527a88"><title>2026-02-17: 3 km</title></circle><circle cx="94.25" cy="167.677" r="3.313" fill="#5096ae"><title>2026-02-18: 5 km</title></circle><circle cx="94.25" cy="176.516" r="3.313" fill="#555"><title>2026-02-19</title></circle><circle cx="94.25" cy="185.355" r="3.313" fill="#555"><title>2026-02-20</title></circle><circle cx="94.25" cy="194.194" r="3.313" fill="#555"><title>2026-02-21</title></circle><circle cx="94.25" cy="203.032" r="3.313" fill="#4fa3bf"><title>2026-02-22: 6 km</title></circle><circle cx="94.25" cy="211.871" r="3.313" fill="#555"><title>2026-02-23</title></circle><circle cx="94.25" cy="220.71" r="3.313" fill="#555"><title>2026-02-24</title></circle><circle cx="94.25" cy="229.548" r="3.313" fill="#4fa3bf"><title>2026-02-25: 6 km</title></circle><circle cx="94.25" cy="238.387" r="3.313" fill="#555"><title>2026-02-26</title></circle><circle cx="94.25" cy="247.226" r="3.313" fill="#555"><title>2026-02-27</title></circle><circle cx="94.25" cy="256.065" r="3.313" fill="#555"><title>2026-02-28</title></circle><circle cx="103.083" cy="17.419" r="3.313" fill="#555"><title>2026-03-01</title></circle><circle cx="103.083" cy="26.258" r="3.313" fill="#4fa3bf"><title>2026-03-02: 6 km</title></circle><circle cx="103.083" cy="35.097" r="3.313" fill="#555"><title>2026-03-03</title></circle><circle cx="103.083" cy="43.935" r="3.313" fill="#555"><title>2026-03-04</title></circle><circle cx="103.083" cy="52.774" r="3.313" fill="#555"><title>2026-03-05</title></circle><circle cx="103.083" cy="61.613" r="3.313" fill="#555"><title>2026-03-06</title></circle><circle cx="103.083" cy="70.452" r="3.313" fill="#4eb5d8"><title>2026-03-07: 7 km</title></circle><circle cx="103.083" cy="79.29" r="3.313" fill="#5096ae"><title>2026-03-08: 5 km</title></circle><circle cx="103.083" cy="88.129" r="3.313" fill="#555"><title>2026-03-09</title></circle><circle cx="103.083" cy="96.968" r="3.313" fill="#555"><title>2026-03-10</title></circle><circle cx="103.083" cy="105.806" r="3.313" fill="#555"><title>2026-03-11</title></circle><circle cx="103.083" cy="114.645" r="3.313" fill="#555"><title>2026-03-12</title></circle><circle cx="103.083" cy="123.484" r="3.313" fill="#555"><title>2026-03-13</title></circle><circle cx="103.083" cy="132.323" r="3.313" fill="#4eb6d8"><title>2026-03-14: 7 km</title></circle><circle cx="103.083" cy="141.161" r="3.313" fill="#5096ae"><title>2026-03-15: 5 km</title></circle><circle cx="103.083" cy="150" r="3.313" fill="#555"><title>2026-03-16</title></circle><circle cx="103.083" cy="158.839" r="3.313" fill="#555"><title>2026-03-17</title></circle><circle cx="103.083" cy="167.677" r="3.313" fill="#555"><title>2026-03-18</title></circle><circle cx="103.083" cy="176.516" r="3.313" fill="#555"><title>2026-03-19</title></circle><circle cx="103.083" cy="185.355" r="3.313" fill="#555"><title>2026-03-20</title></circle><circle cx="103.083" cy="194.194" r="3.313" fill="#5096ae"><title>2026-03-21: 5 km</title></circle><circle cx="103.083" cy="203.032" r="3.313" fill="#4faece"><title>2026-03-22: 7 km</title></circle><circle cx="103.083" cy="211.871" r="3.313" fill="#555"><title>2026-03-23</title></circle><circle cx="103.083" cy="220.71" r="3.313" fill="#555"><title>2026-03-24</title></circle><circle cx="103.083" cy="229.548" r="3.313" fill="#555"><title>2026-03-25</title></circle><circle cx="103.083" cy="238.387" r="3.313" fill="#555"><title>2026-03-26</title></circle><circle cx="103.083" cy="247.226" r="3.313" fill="#555"><title>2026-03-27</title></circle><circle cx="103.083" cy="256.065" r="3.313" fill="#4fa9c8"><title>2026-03-28: 6 km</title></circle><circle cx="103.083" cy="264.903" r="3.313" fill="#FF0"><title>2026-03-29: 10 km</title></circle><circle cx="103.083" cy="273.742" r="3.313" fill="#555"><title>2026-03-30</title></circle><circle cx="103.083" cy="282.581" r="3.313" fill="#555"><title>2026-03-31</title></circle><circle cx="111.917" cy="17.419" r="3.313" fill="#555"><title>2026-04-01</title></circle><circle cx="111.917" cy="26.258" r="3.313" fill="#555"><title>2026-04-02</title></circle><circle cx="111.917" cy="35.097" r="3.313" fill="#555"><title>2026-04-03</title></circle><circle cx="111.917" cy="43.935" r="3.313" fill="#555"><title>2026-04-04</title></circle><circle cx="111.917" cy="52.774" r="3.313" fill="#4ec1e8"><title>2026-04-05: 8 km</title></circle><circle cx="111.917" cy="61.613" r="3.313" fill="#5098b0"><title>2026-04-06: 5 km</title></circle><circle cx="111.917" cy="70.452" r="3.313" fill="#555"><title>2026-04-07</title></circle><circle cx="111.917" cy="79.29" r="3.313" fill="#555"><title>2026-04-08</title></circle><circle cx="111.917" cy="88.129" r="3.313" fill="#555"><title>2026-04-09</title></circle><circle cx="111.917" cy="96.968" r="3.313" fill="#555"><title>2026-04-10</title></circle><circle cx="111.917" cy="105.806" r="3.313" fill="#FF0"><title>2026-04-11: 10 km</title></circle><circle cx="111.917" cy="114.645" r="3.313" fill="#4fadcc"><title>2026-04-12: 7 km</title></circle><circle cx="111.917" cy="123.484" r="3.313" fill="#555"><title>2026-04-13</title></circle><circle cx="111.917" cy="132.323" r="3.313" fill="#555"><title>2026-04-14</title></circle><circle cx="111.917" cy="141.161" r="3.313" fill="#555"><title>2026-04-15</title></circle><circle cx="111.917" cy="150" r="3.313" fill="#555"><title>2026-04-16</title></circle><circle cx="111.917" cy="158.839" r="3.313" fill="#555"><title>2026-04-17</title></circle><circle cx="111.917" cy="167.677" r="3.313" fill="#4fafd0"><title>2026-04-18: 7 km</title></circle><circle cx="111.917" cy="176.516" r="3.313" fill="#FF0"><title>2026-04-19: 10 km</title></circle><circle cx="111.917" cy="185.355" r="3.313" fill="#555"><title>2026-04-20</title></circle><circle cx="111.917" cy="194.194" r="3.313" fill="#555"><title>2026-04-21</title></circle><circle cx="111.917" cy="203.032" r="3.313" fill="#555"><title>2026-04-22</title></circle><circle cx="111.917" cy="211.871" r="3.313" fill="#555"><title>2026-04-23</title></circle><circle cx="111.917" cy="220.71" r="3.313" fill="#555"><title>2026-04-24</title></circle><circle cx="111.917" cy="229.548" r="3.313" fill="#4fb0d1"><title>2026-04-25: 7 km</title></circle><circle cx="111.917" cy="238.387" r="3.313" fill="#4fafd0"><title>2026-04-26: 7 km</title></circle><circle cx="111.917" cy="247.226" r="3.313" fill="#555"><title>2026-04-27</title></circle><circle cx="111.917" cy="256.065" r="3.313" fill="#555"><title>2026-04-28</title></circle><circle cx="111.917" cy="264.903" r="3.313" fill="#555"><title>2026-04-29</title></circle><circle cx="111.917" cy="273.742" r="3.313" fill="#555"><title>2026-04-30</title></circle><circle cx="120.75" cy="17.419" r="3.313" fill="#FF0"><title>2026-05-01: 11 km</title></circle><circle cx="120.75" cy="26.258" r="3.313" fill="#555"><title>2026-05-02</title></circle><circle cx="120.75" cy="35.097" r="3.313" fill="#5096ae"><title>2026-05-03: 5 km</title></circle><circle cx="120.75" cy="43.935" r="3.313" fill="#4fb1d2"><title>2026-05-04: 7 km</title></circle><circle cx="120.75" cy="52.774" r="3.313" fill="#555"><title>2026-05-05</title></circle><circle cx="120.75" cy="61.613" r="3.313" fill="#555"><title>2026-05-06</title></circle><circle cx="120.75" cy="70.452" r="3.313" fill="#555"><title>2026-05-07</title></circle><circle cx="120.75" cy="79.29" r="3.313" fill="#555"><title>2026-05-08</title></circle><circle cx="120.75" cy="88.129" r="3.313" fill="#555"><title>2026-05-09</title></circle><circle cx="120.75" cy="96.968" r="3.313" fill="#5096ae"><title>2026-05-10: 5 km</title></circle><circle cx="120.75" cy="105.806" r="3.313" fill="#555"><title>2026-05-11</title></circle><circle cx="120.75" cy="114.645" r="3.313" fill="#555"><title>2026-05-12</title></circle><circle cx="120.75" cy="123.484" r="3.313" fill="#555"><title>2026-05-13</title></circle><circle cx="120.75" cy="132.323" r="3.313" fill="#555"><title>2026-05-14</title></circle><circle cx="120.75" cy="141.161" r="3.313" fill="#555"><title>2026-05-15</title></circle><circle cx="120.75" cy="150" r="3.313" fill="#555"><title>2026-05-16</title></circle><circle cx="120.75" cy="158.839" r="3.313" fill="#4fb0d1"><title>2026-05-17: 7 km</title></circle><circle cx="120.75" cy="167.677" r="3.313" fill="#555"><title>2026-05-18</title></circle><circle cx="120.75" cy="176.516" r="3.313" fill="#555"><title>2026-05-19</title></circle><circle cx="120.75" cy="185.355" r="3.313" fill="#555"><title>2026-05-20</title></circle><circle cx="120.75" cy="194.194" r="3.313" fill="#555"><title>2026-05-21</title></circle><circle cx="120.75" cy="203.032" r="3.313" fill="#555"><title>2026-05-22</title></circle><circle cx="120.75" cy="211.871" r="3.313" fill="#FF0"><title>2026-05-23: 10 km</title></circle><circle cx="120.75" cy="220.71" r="3.313" fill="#509bb4"><title>2026-05-24: 5 km</title></circle><circle cx="120.75" cy="229.548" r="3.313" fill="#555"><title>2026-05-25</title></circle><circle cx="120.75" cy="238.387" r="3.313" fill="#555"><title>2026-05-26</title></circle><circle cx="120.75" cy="247.226" r="3.313" fill="#555"><title>2026-05-27</title></circle><circle cx="120.75" cy="256.065" r="3.313" fill="#555"><title>2026-05-28</title></circle><circle cx="120.75" cy="264.903" r="3.313" fill="#555"><title>2026-05-29</title></circle><circle cx="120.75" cy="273.742" r="3.313" fill="#FF0"><title>2026-05-30: 10 km</title></circle><circle cx="120.75" cy="282.581" r="3.313" fill="#5096ad"><title>2026-05-31: 5 km</title></circle><circle cx="129.583" cy="17.419" r="3.313" fill="#555"><title>2026-06-01</title></circle><circle cx="129.583" cy="26.258" r="3.313" fill="#555"><title>2026-06-02</title></circle><circle cx="129.583" cy="35.097" r="3.313" fill="#555"><title>2026-06-03</title></circle><circle cx="129.583" cy="43.935" r="3.313" fill="#555"><title>2026-06-04</title></circle><circle cx="129.583" cy="52.774" r="3.313" fill="#555"><title>2026-06-05</title></circle><circle cx="129.583" cy="61.613" r="3.313" fill="#FF0"><title>2026-06-06: 10 km</title></circle><circle cx="129.583" cy="70.452" r="3.313" fill="#555"><title>2026-06-07</title></circle><circle cx="129.583" cy="79.29" r="3.313" fill="#555"><title>2026-06-08</title></circle><circle cx="129.583" cy="88.129" r="3.313" fill="#555"><title>2026-06-09</title></circle><circle cx="129.583" cy="96.968" r="3.313" fill="#555"><title>2026-06-10</title></circle><circle cx="129.583" cy="105.806" r="3.313" fill="#555"><title>2026-06-11</title></circle><circle cx="129.583" cy="114.645" r="3.313" fill="#4dc9f2"><title>2026-06-12: 9 km</title></circle><circle cx="129.583" cy="123.484" r="3.313" fill="#555"><title>2026-06-13</title></circle><circle cx="129.583" cy="132.323" r="3.313" fill="#FF0"><title>2026-06-14: 21 km</title></circle><circle cx="129.583" cy="141.161" r="3.313" fill="#555"><title>2026-06-15</title></circle><circle cx="129.583" cy="150" r="3.313" fill="#555"><title>2026-06-16</title></circle><circle cx="129.583" cy="158.839" r="3.313" fill="#555"><title>2026-06-17</title></circle><circle cx="129.583" cy="167.677" r="3.313" fill="#555"><title>2026-06-18</title></circle><circle cx="129.583" cy="176.516" r="3.313" fill="#509bb4"><title>2026-06-19: 5 km</title></circle><circle cx="129.583" cy="185.355" r="3.313" fill="#4fadcd"><title>2026-06-20: 7 km</title></circle><circle cx="129.583" cy="194.194" r="3.313" fill="#5097af"><title>2026-06-21: 5 km</title></circle><circle cx="129.583" cy="203.032" r="3.313" fill="#555"><title>2026-06-22</title></circle><circle cx="129.583" cy="211.871" r="3.313" fill="#555"><title>2026-06-23</title></circle><circle cx="129.583" cy="220.71" r="3.313" fill="#555"><title>2026-06-24</title></circle><circle cx="129.583" cy="229.548" r="3.313" fill="#555"><title>2026-06-25</title></circle><circle cx="129.583" cy="238.387" r="3.313" fill="#555"><title>2026-06-26</title></circle><circle cx="129.583" cy="247.226" r="3.313" fill="#5099b1"><title>2026-06-27: 5 km</title></circle><circle cx="129.583" cy="256.065" r="3.313" fill="#555"><title>2026-06-28</title></circle><circle cx="129.583" cy="264.903" r="3.313" fill="#555"><title>2026-06-29</title></circle><circle cx="129.583" cy="273.742" r="3.313" fill="#555"><title>2026-06-30</title></circle><circle cx="138.417" cy="17.419" r="3.313" fill="#555"><title>2026-07-01</title></circle><circle cx="138.417" cy="26.258" r="3.313" fill="#555"><title>2026-07-02</title></circle><circle cx="138.417" cy="35.097" r="3.313" fill="#555"><title>2026-07-03</title></circle><circle cx="138.417" cy="43.935" r="3.313" fill="#4fafd0"><title>2026-07-04: 7 km</title></circle><circle cx="138.417" cy="52.774" r="3.313" fill="#5097af"><title>2026-07-05: 5 km</title></circle><circle cx="138.417" cy="61.613" r="3.313" fill="#555"><title>2026-07-06</title></circle><circle cx="138.417" cy="70.452" r="3.313" fill="#555"><title>2026-07-07</title></circle><circle cx="138.417" cy="79.29" r="3.313" fill="#555"><title>2026-07-08</title></circle><circle cx="138.417" cy="88.129" r="3.313" fill="#555"><title>2026-07-09</title></circle><circle cx="138.417" cy="96.968" r="3.313" fill="#555"><title>2026-07-10</title></circle><circle cx="138.417" cy="105.806" r="3.313" fill="#555"><title>2026-07-11</title></circle><circle cx="138.417" cy="114.645" r="3.313" fill="#4fa6c3"><title>2026-07-12: 6 km</title></circle><circle cx="138.417" cy="123.484" r="3.313" fill="#555"><title>2026-07-13</title></circle><circle cx="138.417" cy="132.323" r="3.313" fill="#555"><title>2026-07-14</title></circle><circle cx="138.417" cy="141.161" r="3.313" fill="#555"><title>2026-07-15</title></circle><circle cx="138.417" cy="150" r="3.313" fill="#555"><title>2026-07-16</title></circle><circle cx="138.417" cy="158.839" r="3.313" fill="#555"><title>2026-07-17</title></circle><circle cx="138.417" cy="167.677" r="3.313" fill="#5095ac"><title>2026-07-18: 5 km</title></circle><circle cx="138.417" cy="176.516" r="3.313" fill="#555"><title>2026-07-19</title></circle><circle cx="138.417" cy="185.355" r="3.313" fill="#555"><title>2026-07-20</title></circle><circle cx="138.417" cy="194.194" r="3.313" fill="#555"><title>2026-07-21</title></circle><circle cx="138.417" cy="203.032" r="3.313" fill="#555"><title>2026-07-22</title></circle><circle cx="138.417" cy="211.871" r="3.313" fill="#555"><title>2026-07-23</title></circle><circle cx="138.417" cy="220.71" r="3.313" fill="#555"><title>2026-07-24</title></circle><circle cx="138.417" cy="229.548" r="3.313" fill="#4fb1d2"><title>2026-07-25: 7 km</title></circle><circle cx="138.417" cy="238.387" r="3.313" fill="#555"><title>2026-07-26</title></circle><circle cx="138.417" cy="247.226" r="3.313" fill="#555"><title>2026-07-27</title></circle><circle cx="138.417" cy="256.065" r="3.313" fill="#555"><title>2026-07-28</title></circle><circle cx="138.417" cy="264.903" r="3.313" fill="#555"><title>2026-07-29</title></circle><circle cx="138.417" cy="273.742" r="3.313" fill="#555"><title>2026-07-30</title></circle><circle cx="138.417" cy="282.581" r="3.313" fill="#555"><title>2026-07-31</title></circle><circle cx="147.25" cy="17.419" r="3.313" fill="#509ab2"><title>2026-08-01: 5 km</title></circle><circle cx="147.25" cy="26.258" r="3.313" fill="#555"><title>2026-08-02</title></circle><circle cx="147.25" cy="35.097" r="3.313" fill="#555"><title>2026-08-03</title></circle><circle cx="147.25" cy="43.935" r="3.313" fill="#555"><title>2026-08-04</title></circle><circle cx="147.25" cy="52.774" r="3.313" fill="#555"><title>2026-08-05</title></circle><circle cx="147.25" cy="61.613" r="3.313" fill="#555"><title>2026-08-06</title></circle><circle cx="147.25" cy="70.452" r="3.313" fill="#555"><title>2026-08-07</title></circle><circle cx="147.25" cy="79.29" r="3.313" fill="#4fa6c3"><title>2026-08-08: 6 km</title></circle><circle cx="147.25" cy="88.129" r="3.313" fill="#4fa3bf"><title>2026-08-09: 6 km</title></circle><circle cx="147.25" cy="96.968" r="3.313" fill="#555"><title>2026-08-10</title></circle><circle cx="147.25" cy="105.806" r="3.313" fill="#555"><title>2026-08-11</title></circle><circle cx="147.25" cy="114.645" r="3.313" fill="#555"><title>2026-08-12</title></circle><circle cx="147.25" cy="123.484" r="3.313" fill="#555"><title>2026-08-13</title></circle><circle cx="147.25" cy="132.323" r="3.313" fill="#555"><title>2026-08-14</title></circle><circle cx="147.25" cy="141.161" r="3.313" fill="#555"><title>2026-08-15</title></circle><circle cx="147.25" cy="150" r="3.313" fill="#4faece"><title>2026-08-16: 7 km</title></circle><circle cx="147.25" cy="158.839" r="3.313" fill="#555"><title>2026-08-17</title></circle><circle cx="147.25" cy="167.677" r="3.313" fill="#555"><title>2026-08-18</title></circle><circle cx="147.25" cy="176.516" r="3.313" fill="#555"><title>2026-08-19</title></circle><circle cx="147.25" cy="185.355" r="3.313" fill="#555"><title>2026-08-20</title></circle><circle cx="147.25" cy="194.194" r="3.313" fill="#555"><title>2026-08-21</title></circle><circle cx="147.25" cy="203.032" r="3.313" fill="#4fa3bf"><title>2026-08-22: 6 km</title></circle><circle cx="147.25" cy="211.871" r="3.313" fill="#5098b0"><title>2026-08-23: 5 km</title></circle><circle cx="147.25" cy="220.71" r="3.313" fill="#555"><title>2026-08-24</title></circle><circle cx="147.25" cy="229.548" r="3.313" fill="#555"><title>2026-08-25</title></circle><circle cx="147.25" cy="238.387" r="3.313" fill="#555"><title>2026-08-26</title></circle><circle cx="147.25" cy="247.226" r="3.313" fill="#555"><title>2026-08-27</title></circle><circle cx="147.25" cy="256.065" r="3.313" fill="#555"><title>2026-08-28</title></circle><circle cx="147.25" cy="264.903" r="3.313" fill="#5098b0"><title>2026-08-29: 5 km</title></circle><circle cx="147.25" cy="273.742" r="3.313" fill="#555"><title>2026-08-30</title></circle><circle cx="147.25" cy="282.581" r="3.313" fill="#555"><title>2026-08-31</title></circle><circle cx="156.083" cy="17.419" r="3.313" fill="#555"><title>2026-09-01</title></circle><circle cx="156.083" cy="26.258" r="3.313" fill="#555"><title>2026-09-02</title></circle><circle cx="156.083" cy="35.097" r="3.313" fill="#555"><title>2026-09-03</title></circle><circle cx="156.083" cy="43.935" r="3.313" fill="#555"><title>2026-09-04</title></circle><circle cx="156.083" cy="52.774" r="3.313" fill="#555"><title>2026-09-05</title></circle><circle cx="156.083" cy="61.613" r="3.313" fill="#555"><title>2026-09-06</title></circle><circle cx="156.083" cy="70.452" r="3.313" fill="#555"><title>2026-09-07</title></circle><circle cx="156.083" cy="79.29" r="3.313" fill="#555"><title>2026-09-08</title></circle><circle cx="156.083" cy="88.129" r="3.313" fill="#555"><title>2026-09-09</title></circle><circle cx="156.083" cy="96.968" r="3.313" fill="#555"><title>2026-09-10</title></circle><circle cx="156.083" cy="105.806" r="3.313" fill="#555"><title>2026-09-11</title></circle><circle cx="156.083" cy="114.645" r="3.313" fill="#555"><title>2026-09-12</title></circle><circle cx="156.083" cy="123.484" r="3.313" fill="#555"><title>2026-09-13</title></circle><circle cx="156.083" cy="132.323" r="3.313" fill="#555"><title>2026-09-14</title></circle><circle cx="156.083" cy="141.161" r="3.313" fill="#555"><title>2026-09-15</title></circle><circle cx="156.083" cy="150" r="3.313" fill="#555"><title>2026-09-16</title></circle><circle cx="156.083" cy="158.839" r="3.313" fill="#555"><title>2026-09-17</title></circle><circle cx="156.083" cy="167.677" r="3.313" fill="#555"><title>2026-09-18</title></circle><circle cx="156.083" cy="176.516" r="3.313" fill="#555"><title>2026-09-19</title></circle><circle cx="156.083" cy="185.355" r="3.313" fill="#555"><title>2026-09-20</title></circle><circle cx="156.083" cy="194.194" r="3.313" fill="#555"><title>2026-09-21</title></circle><circle cx="156.083" cy="203.032" r="3.313" fill="#555"><title>2026-09-22</title></circle><circle cx="156.083" cy="211.871" r="3.313" fill="#555"><title>2026-09-23</title></circle><circle cx="156.083" cy="220.71" r="3.313" fill="#555"><title>2026-09-24</title></circle><circle cx="156.083" cy="229.548" r="3.313" fill="#555"><title>2026-09-25</title></circle><circle cx="156.083" cy="238.387" r="3.313" fill="#555"><title>2026-09-26</title></circle><circle cx="156.083" cy="247.226" r="3.313" fill="#555"><title>2026-09-27</title></circle><circle cx="156.083" cy="256.065" r="3.313" fill="#555"><title>2026-09-28</title></circle><circle cx="156.083" cy="264.903" r="3.313" fill="#555"><title>2026-09-29</title></circle><circle cx="156.083" cy="273.742" r="3.313" fill="#555"><title>2026-09-30</title></circle><circle cx="164.917" cy="17.419" r="3.313" fill="#555"><title>2026-10-01</title></circle><circle cx="164.917" cy="26.258" r="3.313" fill="#555"><title>2026-10-02</title></circle><circle cx="164.917" cy="35.097" r="3.313" fill="#555"><title>2026-10-03</title></circle><circle cx="164.917" cy="43.935" r="3.313" fill="#555"><title>2026-10-04</title></circle><circle cx="164.917" cy="52.774" r="3.313" fill="#555"><title>2026-10-05</title></circle><circle cx="164.917" cy="61.613" r="3.313" fill="#555"><title>2026-10-06</title></circle><circle cx="164.917" cy="70.452" r="3.313" fill="#555"><title>2026-10-07</title></circle><circle cx="164.917" cy="79.29" r="3.313" fill="#555"><title>2026-10-08</title></circle><circle cx="164.917" cy="88.129" r="3.313" fill="#555"><title>2026-10-09</title></circle><circle cx="164.917" cy="96.968" r="3.313" fill="#555"><title>2026-10-10</title></circle><circle cx="164.917" cy="105.806" r="3.313" fill="#555"><title>2026-10-11</title></circle><circle cx="164.917" cy="114.645" r="3.313" fill="#555"><title>2026-10-12</title></circle><circle cx="164.917" cy="123.484" r="3.313" fill="#555"><title>2026-10-13</title></circle><circle cx="164.917" cy="132.323" r="3.313" fill="#555"><title>2026-10-14</title></circle><circle cx="164.917" cy="141.161" r="3.313" fill="#555"><title>2026-10-15</title></circle><circle cx="164.917" cy="150" r="3.313" fill="#555"><title>2026-10-16</title></circle><circle cx="164.917" cy="158.839" r="3.313" fill="#555"><title>2026-10-17</title></circle><circle cx="164.917" cy="167.677" r="3.313" fill="#555"><title>2026-10-18</title></circle><circle cx="164.917" cy="176.516" r="3.313" fill="#555"><title>2026-10-19</title></circle><circle cx="164.917" cy="185.355" r="3.313" fill="#555"><title>2026-10-20</title></circle><circle cx="164.917" cy="194.194" r="3.313" fill="#555"><title>2026-10-21</title></circle><circle cx="164.917" cy="203.032" r="3.313" fill="#555"><title>2026-10-22</title></circle><circle cx="164.917" cy="211.871" r="3.313" fill="#555"><title>2026-10-23</title></circle><circle cx="164.917" cy="220.71" r="3.313" fill="#555"><title>2026-10-24</title></circle><circle cx="164.917" cy="229.548" r="3.313" fill="#555"><title>2026-10-25</title></circle><circle cx="164.917" cy="238.387" r="3.313" fill="#555"><title>2026-10-26</title></circle><circle cx="164.917" cy="247.226" r="3.313" fill="#555"><title>2026-10-27</title></circle><circle cx="164.917" cy="256.065" r="3.313" fill="#555"><title>2026-10-28</title></circle><circle cx="164.917" cy="264.903" r="3.313" fill="#555"><title>2026-10-29</title></circle><circle cx="164.917" cy="273.742" r="3.313" fill="#555"><title>2026-10-30</title></circle><circle cx="164.917" cy="282.581" r="3.313" fill="#555"><title>2026-10-31</title></circle><circle cx="173.75" cy="17.419" r="3.313" fill="#555"><title>2026-11-01</title></circle><circle cx="173.75" cy="26.258" r="3.313" fill="#555"><title>2026-11-02</title></circle><circle cx="173.75" cy="35.097" r="3.313" fill="#555"><title>2026-11-03</title></circle><circle cx="173.75" cy="43.935" r="3.313" fill="#555"><title>2026-11-04</title></circle><circle cx="173.75" cy="52.774" r="3.313" fill="#555"><title>2026-11-05</title></circle><circle cx="173.75" cy="61.613" r="3.313" fill="#555"><title>2026-11-06</title></circle><circle cx="173.75" cy="70.452" r="3.313" fill="#555"><title>2026-11-07</title></circle><circle cx="173.75" cy="79.29" r="3.313" fill="#555"><title>2026-11-08</title></circle><circle cx="173.75" cy="88.129" r="3.313" fill="#555"><title>2026-11-09</title></circle><circle cx="173.75" cy="96.968" r="3.313" fill="#555"><title>2026-11-10</title></circle><circle cx="173.75" cy="105.806" r="3.313" fill="#555"><title>2026-11-11</title></circle><circle cx="173.75" cy="114.645" r="3.313" fill="#555"><title>2026-11-12</title></circle><circle cx="173.75" cy="123.484" r="3.313" fill="#555"><title>2026-11-13</title></circle><circle cx="173.75" cy="132.323" r="3.313" fill="#555"><title>2026-11-14</title></circle><circle cx="173.75" cy="141.161" r="3.313" fill="#555"><title>2026-11-15</title></circle><circle cx="173.75" cy="150" r="3.313" fill="#555"><title>2026-11-16</title></circle><circle cx="173.75" cy="158.839" r="3.313" fill="#555"><title>2026-11-17</title></circle><circle cx="173.75" cy="167.677" r="3.313" fill="#555"><title>2026-11-18</title></circle><circle cx="173.75" cy="176.516" r="3.313" fill="#555"><title>2026-11-19</title></circle><circle cx="173.75" cy="185.355" r="3.313" fill="#555"><title>2026-11-20</title></circle><circle cx="173.75" cy="194.194" r="3.313" fill="#555"><title>2026-11-21</title></circle><circle cx="173.75" cy="203.032" r="3.313" fill="#555"><title>2026-11-22</title></circle><circle cx="173.75" cy="211.871" r="3.313" fill="#555"><title>2026-11-23</title></circle><circle cx="173.75" cy="220.71" r="3.313" fill="#555"><title>2026-11-24</title></circle><circle cx="173.75" cy="229.548" r="3.313" fill="#555"><title>2026-11-25</title></circle><circle cx="173.75" cy="238.387" r="3.313" fill="#555"><title>2026-11-26</title></circle><circle cx="173.75" cy="247.226" r="3.313" fill="#555"><title>2026-11-27</title></circle><circle cx="173.75" cy="256.065" r="3.313" fill="#555"><title>2026-11-28</title></circle><circle cx="173.75" cy="264.903" r="3.313" fill="#555"><title>2026-11-29</title></circle><circle cx="173.75" cy="273.742" r="3.313" fill="#555"><title>2026-11-30</title></circle><circle cx="182.583" cy="17.419" r="3.313" fill="#555"><title>2026-12-01</title></circle><circle cx="182.583" cy="26.258" r="3.313" fill="#555"><title>2026-12-02</title></circle><circle cx="182.583" cy="35.097" r="3.313" fill="#555"><title>2026-12-03</title></circle><circle cx="182.583" cy="43.935" r="3.313" fill="#555"><title>2026-12-04</title></circle><circle cx="182.583" cy="52.774" r="3.313" fill="#555"><title>2026-12-05</title></circle><circle cx="182.583" cy="61.613" r="3.313" fill="#555"><title>2026-12-06</title></circle><circle cx="182.583" cy="70.452" r="3.313" fill="#555"><title>2026-12-07</title></circle><circle cx="182.583" cy="79.29" r="3.313" fill="#555"><title>2026-12-08</title></circle><circle cx="182.583" cy="88.129" r="3.313" fill="#555"><title>2026-12-09</title></circle><circle cx="182.583" cy="96.968" r="3.313" fill="#555"><title>2026-12-10</title></circle><circle cx="182.583" cy="105.806" r="3.313" fill="#555"><title>2026-12-11</title></circle><circle cx="182.583" cy="114.645" r="3.313" fill="#555"><title>2026-12-12</title></circle><circle cx="182.583" cy="123.484" r="3.313" fill="#555"><title>2026-12-13</title></circle><circle cx="182.583" cy="132.323" r="3.313" fill="#555"><title>2026-12-14</title></circle><circle cx="182.583" cy="141.161" r="3.313" fill="#555"><title>2026-12-15</title></circle><circle cx="182.583" cy="150" r="3.313" fill="#555"><title>2026-12-16</title></circle><circle cx="182.583" cy="158.839" r="3.313" fill="#555"><title>2026-12-17</title></circle><circle cx="182.583" cy="167.677" r="3.313" fill="#555"><title>2026-12-18</title></circle><circle cx="182.583" cy="176.516" r="3.313" fill="#555"><title>2026-12-19</title></circle><circle cx="182.583" cy="185.355" r="3.313" fill="#555"><title>2026-12-20</title></circle><circle cx="182.583" cy="194.194" r="3.313" fill="#555"><title>2026-12-21</title></circle><circle cx="182.583" cy="203.032" r="3.313" fill="#555"><title>2026-12-22</title></circle><circle cx="182.583" cy="211.871" r="3.313" fill="#555"><title>2026-12-23</title></circle><circle cx="182.583" cy="220.71" r="3.313" fill="#555"><title>2026-12-24</title></circle><circle cx="182.583" cy="229.548" r="3.313" fill="#555"><title>2026-12-25</title></circle><circle cx="182.583" cy="238.387" r="3.313" fill="#555"><title>2026-12-26</title></circle><circle cx="182.583" cy="247.226" r="3.313" fill="#555"><title>2026-12-27</title></circle><circle cx="182.583" cy="256.065" r="3.313" fill="#555"><title>2026-12-28</title></circle><circle cx="182.583" cy="264.903" r="3.313" fill="#555"><title>2026-12-29</title></circle><circle cx="182.583" cy="273.742" r="3.313" fill="#555"><title>2026-12-30</title></circle><circle cx="182.583" cy="282.581" r="3.313" fill="#555"><title>2026-12-31</title></circle></svg>